{"title":"Shadows in Paradise 2010 BRRip x264 Feel-Free","uid":6101869,"size":1187552566,"categoryP":"video","categoryS":"movies","magnet":"?xt=urn:btih:3ff370020f3b4be843922c75bdd7ea916bff8269&amp;dn=Shadows+in+Paradise+2010+BRRip+x264+Feel-Free&amp;tr=udp%3A%2F%2Ftracker.openbittorrent.com%3A80&amp;tr=udp%3A%2F%2Fopen.demonii.com%3A1337&amp;tr=udp%3A%2F%2Ftracker.coppersurfer.tk%3A6969&amp;tr=udp%3A%2F%2Fexodus.desync.com%3A6969","seeders":1,"leechers":0,"uploader":"neon","files":-1,"time":1295001723,"description":"Genre: Action\nLanguage:English\n &lt;a href=&quot; http://www.imdb.com/title/tt1212442/&quot; rel=&quot;nofollow&quot; target=&quot;_NEW&quot;&gt; http://www.imdb.com/title/tt1212442/&lt;/a&gt;\nSource:Bluray\n\n\nFormat : Matroska\nFile size : 1.10 GiB\nDuration : 1h 25mn\nOverall bit rate : 1 856 Kbps\n\n\nVideo\nFormat settings, CABAC : Yes\nFormat settings, ReFrames : 4 frames\nCodec ID : V_MPEG4/ISO/AVC\nDuration : 1h 25mn\nBit rate : 1 234 Kbps\nWidth : 720 pixels\nHeight : 384 pixels\nDisplay aspect ratio : 1.875\nFrame rate mode : Variable\nFrame rate : 23.976 fps\nColor space : YUV\nChroma subsampling : 4:2:0\nBit depth : 8 bits\nScan type : Progressive\nBits/(Pixel*Frame) : 0.186\nStream size : 718 MiB (64%)\nWriting library : x264\n\n\nAudio\nID : 2\nFormat : AC-3\nFormat/Info : Audio Coding 3\nMode extension : CM (complete main)\nCodec ID : A_AC3\nDuration : 1h 25mn\nBit rate mode : Constant\nBit rate : 640 Kbps\nChannel(s) : 6 channels\nChannel positions : Front: L C R, Side: L R, LFE\nSampling rate : 48.0 KHz\nBit depth : 16 bits\nVideo delay : -1mn 5s\nStream size : 390 MiB (34%)\nLanguage : English\n\n\nPlot:\nDuring a rescue operation in Iraq, Special Forces member Max Forrester is devastated when Sasha, his squad mate and fiance goes missing\n &lt;a href=&quot;\nhttp://shareimage.org/images/komdn1tq119oktgb67i.png&quot; rel=&quot;nofollow&quot; target=&quot;_NEW&quot;&gt;\nhttp://shareimage.org/images/komdn1tq119oktgb67i.png&lt;/a&gt; &lt;a href=&quot;\nhttp://shareimage.org/images/ylr03nn87fcnf1foq5y3.png&quot; rel=&quot;nofollow&quot; target=&quot;_NEW&quot;&gt;\nhttp://shareimage.org/images/ylr03nn87fcnf1foq5y3.png&lt;/a&gt; &lt;a href=&quot;\nhttp://shareimage.org/images/xaeeqchogzhza39cz7z.png&quot; rel=&quot;nofollow&quot; target=&quot;_NEW&quot;&gt;\nhttp://shareimage.org/images/xaeeqchogzhza39cz7z.png&lt;/a&gt;","torrent":{"xt":"urn:btih:3ff370020f3b4be843922c75bdd7ea916bff8269","amp;dn":"Shadows+in+Paradise+2010+BRRip+x264+Feel-Free","amp;tr":["udp%3A%2F%2Ftracker.openbittorrent.com%3A80","udp%3A%2F%2Fopen.demonii.com%3A1337","udp%3A%2F%2Ftracker.coppersurfer.tk%3A6969","udp%3A%2F%2Fexodus.desync.com%3A6969"],"infoHash":"3ff370020f3b4be843922c75bdd7ea916bff8269","infoHashBuffer":{"type":"Buffer","data":[63,243,112,2,15,59,75,232,67,146,44,117,189,215,234,145,107,255,130,105]},"announce":[],"urlList":[]}}